<svg xmlns="http://www.w3.org/2000/svg" version="1.1" xmlns:xlink="http://www.w3.org/1999/xlink" xmlns:svgjs="http://svgjs.dev/svgjs" width="1000" height="1000" viewBox="0 0 1000 1000"><rect width="1000" height="1000" fill="#046380"></rect><g transform="matrix(0.7,0,0,0.7,149.57575757575756,282.1265587044535)"><svg viewBox="0 0 396 247" data-background-color="#046380" preserveAspectRatio="xMidYMid meet" height="623" width="1000" xmlns="http://www.w3.org/2000/svg" xmlns:xlink="http://www.w3.org/1999/xlink"><g id="tight-bounds" transform="matrix(1,0,0,1,0.2400000000000091,-0.09999999999999432)"><svg viewBox="0 0 395.52 247.2" height="247.2" width="395.52"><g><svg></svg></g><g><svg viewBox="0 0 395.52 247.2" height="247.2" width="395.52"><g transform="matrix(1,0,0,1,92.288,96.20467532467532)"><svg viewBox="0 0 210.944 54.79064935064934" height="54.79064935064934" width="210.944"><g><svg viewBox="0 0 210.944 54.79064935064934" height="54.79064935064934" width="210.944"><g><svg viewBox="0 0 210.94400000000002 54.790649350649346" height="54.79064935064934" width="210.944"><g><svg viewBox="0 0 210.94400000000002 54.790649350649346" height="54.790649350649346" width="210.94400000000002"><g id="textblocktransform"><svg viewBox="0 0 210.94400000000002 54.790649350649346" height="54.790649350649346" width="210.94400000000002" id="textblock"><g><svg viewBox="0 0 210.94400000000002 54.790649350649346" height="54.790649350649346" width="210.94400000000002"><g transform="matrix(1,0,0,1,0,0)"><svg width="210.94400000000002" viewBox="0.6 -35.5 138.59 36" height="54.790649350649346" data-palette-color="#ffffff"><path d="M0.6 0L6.3-35 13.75-35 19.45 0 13.95 0 12.95-6.95 12.95-6.85 6.7-6.85 5.7 0 0.6 0ZM7.35-11.6L12.3-11.6 9.85-28.9 9.75-28.9 7.35-11.6ZM22.1 0L22.1-35 29-35 34.35-14.05 34.45-14.05 34.45-35 39.35-35 39.35 0 33.7 0 27.1-25.55 27-25.55 27 0 22.1 0ZM51.2 0.5Q47.25 0.5 45.17-1.75 43.1-4 43.1-8.1L43.1-8.1 43.1-26.9Q43.1-31 45.17-33.25 47.25-35.5 51.2-35.5L51.2-35.5Q55.15-35.5 57.22-33.25 59.3-31 59.3-26.9L59.3-26.9 59.3-23.2 54.1-23.2 54.1-27.25Q54.1-30.5 51.35-30.5L51.35-30.5Q48.6-30.5 48.6-27.25L48.6-27.25 48.6-7.7Q48.6-4.5 51.35-4.5L51.35-4.5Q54.1-4.5 54.1-7.7L54.1-7.7 54.1-13.05 59.3-13.05 59.3-8.1Q59.3-4 57.22-1.75 55.15 0.5 51.2 0.5L51.2 0.5ZM62.59 0L62.59-35 68.09-35 68.09-20.75 73.99-20.75 73.99-35 79.49-35 79.49 0 73.99 0 73.99-15.75 68.09-15.75 68.09 0 62.59 0ZM91.54 0.5Q87.49 0.5 85.34-1.8 83.19-4.1 83.19-8.3L83.19-8.3 83.19-26.7Q83.19-30.9 85.34-33.2 87.49-35.5 91.54-35.5L91.54-35.5Q95.59-35.5 97.74-33.2 99.89-30.9 99.89-26.7L99.89-26.7 99.89-8.3Q99.89-4.1 97.74-1.8 95.59 0.5 91.54 0.5L91.54 0.5ZM91.54-4.5Q94.39-4.5 94.39-7.95L94.39-7.95 94.39-27.05Q94.39-30.5 91.54-30.5L91.54-30.5Q88.69-30.5 88.69-27.05L88.69-27.05 88.69-7.95Q88.69-4.5 91.54-4.5L91.54-4.5ZM103.59 0L103.59-35 111.74-35Q115.99-35 117.94-33.02 119.89-31.05 119.89-26.95L119.89-26.95 119.89-24.8Q119.89-19.35 116.29-17.9L116.29-17.9 116.29-17.8Q118.29-17.2 119.11-15.35 119.94-13.5 119.94-10.4L119.94-10.4 119.94-4.25Q119.94-2.75 120.04-1.83 120.14-0.9 120.54 0L120.54 0 114.94 0Q114.64-0.85 114.54-1.6 114.44-2.35 114.44-4.3L114.44-4.3 114.44-10.7Q114.44-13.1 113.66-14.05 112.89-15 110.99-15L110.99-15 109.09-15 109.09 0 103.59 0ZM109.09-20L111.09-20Q112.74-20 113.56-20.85 114.39-21.7 114.39-23.7L114.39-23.7 114.39-26.4Q114.39-28.3 113.71-29.15 113.04-30 111.59-30L111.59-30 109.09-30 109.09-20ZM130.89 0.5Q126.89 0.5 124.84-1.78 122.79-4.05 122.79-8.3L122.79-8.3 122.79-10.3 127.99-10.3 127.99-7.9Q127.99-4.5 130.84-4.5L130.84-4.5Q132.24-4.5 132.96-5.33 133.69-6.15 133.69-8L133.69-8Q133.69-10.2 132.69-11.88 131.69-13.55 128.99-15.9L128.99-15.9Q125.59-18.9 124.24-21.33 122.89-23.75 122.89-26.8L122.89-26.8Q122.89-30.95 124.99-33.23 127.09-35.5 131.09-35.5L131.09-35.5Q135.04-35.5 137.06-33.23 139.09-30.95 139.09-26.7L139.09-26.7 139.09-25.25 133.89-25.25 133.89-27.05Q133.89-28.85 133.19-29.68 132.49-30.5 131.14-30.5L131.14-30.5Q128.39-30.5 128.39-27.15L128.39-27.15Q128.39-25.25 129.41-23.6 130.44-21.95 133.14-19.6L133.14-19.6Q136.59-16.6 137.89-14.15 139.19-11.7 139.19-8.4L139.19-8.4Q139.19-4.1 137.06-1.8 134.94 0.5 130.89 0.5L130.89 0.5Z" opacity="1" transform="matrix(1,0,0,1,0,0)" fill="#ffffff" class="undefined-text-0" data-fill-palette-color="primary" id="text-0"></path></svg></g></svg></g></svg></g></svg></g><g></g></svg></g></svg></g></svg></g><g mask="url(#3b6b38f5-3a53-4fd9-9e05-0c386deffeb9)"><g transform="matrix(2.7245655362460557, 0, 0, 2.7245655362460557, 102.92059824881105, 1)"><svg xmlns="http://www.w3.org/2000/svg" xmlns:xlink="http://www.w3.org/1999/xlink" version="1.1" x="0" y="0" viewBox="15.193000000000005 5.002000000000006 69.618 89.99599999999998" enable-background="new 0 0 100 100" xml:space="preserve" height="89.99599999999998" width="69.618" class="icon-none" data-fill-palette-color="accent" id="none"><path d="M64.448 69.828l5.993 5.992c-2.421 1.92-7.77 5.61-14.699 7.066V49.828h13.205c3.172 0 5.741-2.57 5.741-5.741s-2.569-5.742-5.741-5.742H55.742v-7.081h-0.146c4.789-2.148 8.137-6.95 8.137-12.529 0-7.572-6.16-13.733-13.731-13.733-7.572 0-13.733 6.161-13.733 13.733 0 5.579 3.348 10.381 8.136 12.529h-0.145v7.081H31.053c-3.171 0-5.741 2.571-5.741 5.742s2.57 5.741 5.741 5.741h13.207v33.059c-6.931-1.456-12.279-5.146-14.699-7.066l5.992-5.992-20.36-0.022 0.022 20.36 6.184-6.184c3.625 3.091 14.311 11.015 28.604 11.015 14.292 0 24.978-7.924 28.603-11.015l6.184 6.184 0.021-20.36L64.448 69.828zM50.001 24.477c-3.172 0-5.742-2.571-5.742-5.742s2.57-5.742 5.742-5.742c3.171 0 5.741 2.571 5.741 5.742S53.172 24.477 50.001 24.477z" fill="#ffffff" data-fill-palette-color="accent"></path></svg></g></g></svg></g><defs><mask id="3b6b38f5-3a53-4fd9-9e05-0c386deffeb9"><rect width="640" height="400" fill="white"></rect><rect width="232.0384" height="80.66016402285713" fill="black" x="203.9808" y="159.66991798857143" id="transform-me" transform="matrix(1,0,0,1,-122.24000000000001,-76.4)"></rect></mask></defs></svg><rect width="395.52" height="247.2" fill="none" stroke="none" visibility="hidden"></rect></g></svg></g></svg>